HIERARCHY
ROOT hip
{
	OFFSET 0.000000 0.000000 0.000000 
	CHANNELS 6 Xposition Yposition Zposition Xrotation Zrotation Yrotation
	JOINT abdomen
	{
		OFFSET 0.000000 3.402643 0.000000 
		CHANNELS 3 Xrotation Zrotation Yrotation
		JOINT chest
		{
			OFFSET 0.000000 8.438565 -0.680529 
			CHANNELS 3 Xrotation Zrotation Yrotation
			JOINT neck
			{
				OFFSET 0.000000 10.207942 -0.272212 
				CHANNELS 3 Xrotation Zrotation Yrotation
				JOINT head
				{
					OFFSET 0.000000 3.130431 0.000000 
					CHANNELS 3 Xrotation Zrotation Yrotation
					End Site
					{
						OFFSET 0.000000 3.130435 0.000000 
					}
				}
			}
			JOINT lCollar
			{
				OFFSET 3.470700 6.669187 -0.816635 
				CHANNELS 3 Yrotation Zrotation Xrotation
				JOINT lShldr
				{
					OFFSET 3.198488 0.000000 0.000000 
					CHANNELS 3 Zrotation Yrotation Xrotation
					JOINT lForeArm
					{
						OFFSET 10.139888 0.000000 0.000000 
						CHANNELS 3 Yrotation Zrotation Xrotation
						JOINT lHand
						{
							OFFSET 8.370511 0.000000 0.000000 
							CHANNELS 3 Zrotation Yrotation Xrotation
							End Site
							{
								OFFSET 4.083176 0.000000 0.000000 
							}
						}
					}
				}
			}
			JOINT rCollar
			{
				OFFSET -3.470700 6.669187 -0.816635 
				CHANNELS 3 Yrotation Zrotation Xrotation
				JOINT rShldr
				{
					OFFSET -3.198488 0.000000 0.000000 
					CHANNELS 3 Zrotation Yrotation Xrotation
					JOINT rForeArm
					{
						OFFSET -10.139888 0.000000 0.000000 
						CHANNELS 3 Yrotation Zrotation Xrotation
						JOINT rHand
						{
							OFFSET -8.370511 0.000000 0.000000 
							CHANNELS 3 Zrotation Yrotation Xrotation
							End Site
							{
								OFFSET -4.083176 0.000000 0.000000 
							}
						}
					}
				}
			}
		}
	}
	JOINT lThigh
	{
		OFFSET 5.308129 -1.633274 1.361059 
		CHANNELS 3 Xrotation Zrotation Yrotation
		JOINT lShin
		{
			OFFSET -2.041588 -20.007561 0.000000 
			CHANNELS 3 Xrotation Zrotation Yrotation
			JOINT lFoot
			{
				OFFSET 0.000000 -19.190928 -1.224953 
				CHANNELS 3 Xrotation Yrotation Zrotation
				End Site
				{
					OFFSET 0.000000 -2.449906 4.627600 
				}
			}
		}
	}
	JOINT rThigh
	{
		OFFSET -5.308129 -1.633274 1.361059 
		CHANNELS 3 Xrotation Zrotation Yrotation
		JOINT rShin
		{
			OFFSET 2.041588 -20.007561 0.000000 
			CHANNELS 3 Xrotation Zrotation Yrotation
			JOINT rFoot
			{
				OFFSET 0.000000 -19.190928 -1.224953 
				CHANNELS 3 Xrotation Yrotation Zrotation
				End Site
				{
					OFFSET 0.000000 -2.449906 4.627600 
				}
			}
		}
	}
}
MOTION
Frames: 10
Frame Time: 0.016667
-0.867816 44.917957 0.826301 -4.512630 -1.148770 -5.505060 -22.025000 2.378530 -2.499020 10.187200 5.437610 -1.393020 8.252150 -0.443473 -11.252600 9.041910 4.814820 -5.484090 2.000000 -2.000000 0.000000 99.166702 167.621002 -1.640640 59.355999 -0.284534 0.117677 0.063289 -0.052660 -156.082001 -2.000000 2.000000 0.000000 75.720299 11.533800 127.830002 -89.951698 0.214964 0.136725 -0.235712 0.159075 125.607002 -5.829509 -0.754419 -11.186663 29.090963 3.438562 1.958933 0.044346 -0.036433 0.038415 -6.003935 7.610865 4.163079 30.150801 -2.809200 -2.239615 1.603164 0.780521 0.730264 
-1.041444 44.913204 0.789291 -4.522510 -1.216900 -5.743620 -21.805799 2.569670 -2.267920 10.295100 5.439470 -1.265650 8.515040 -0.804671 -11.144000 9.293630 4.491480 -5.394640 2.000000 -2.000000 0.000000 99.304398 169.610001 -0.444574 59.238800 -0.284775 0.117535 0.063533 -0.053357 -156.345993 -2.000000 2.000000 0.000000 77.117401 12.353800 128.007004 -90.195702 0.214415 0.117193 -0.235929 0.159047 125.528999 -5.887640 -0.519926 -11.171156 29.307676 3.441831 1.977737 0.028183 -0.035238 0.070193 -5.965077 7.830127 4.141021 30.102047 -2.801311 -2.228697 1.599730 0.792654 0.765958 
-1.210434 44.906902 0.742351 -4.483160 -1.041730 -5.660530 -22.059500 2.690070 -2.668930 9.862260 6.017480 -1.514920 8.207600 -1.386820 -10.325500 9.086280 4.308540 -4.987600 2.000000 -2.000000 0.000000 98.913902 170.009003 0.366911 59.375500 -0.284494 0.117701 0.063615 -0.053589 -156.432999 -2.000000 2.000000 0.000000 78.193802 12.322800 129.171005 -90.371498 0.214026 0.117191 -0.235550 0.159097 125.666000 -5.938475 -0.502059 -11.264737 29.228695 3.441273 1.968683 0.010743 -0.015904 0.087969 -6.101662 7.818343 3.985362 30.202003 -2.787576 -2.243053 1.617812 0.796725 0.777635 
-1.363225 44.903816 0.741278 -4.385490 -1.041860 -5.759960 -21.912901 2.813920 -2.951110 10.397600 6.268160 -1.618560 8.479790 -2.044440 -9.248290 9.152480 4.035600 -4.430710 2.000000 -2.000000 0.000000 98.875298 170.904999 1.492070 59.287601 -0.284675 0.117594 0.063578 -0.053486 -156.393997 -2.000000 2.000000 0.000000 79.220200 12.751800 129.602005 -90.596100 0.213528 0.117187 -0.235794 0.159065 125.578003 -6.069593 -0.364767 -11.302756 29.324062 3.465058 1.963366 0.012401 0.009532 0.108054 -6.165403 8.013101 4.035301 30.142855 -2.786870 -2.234039 1.641271 0.806547 0.801671 
-1.502299 44.917576 0.736854 -4.317250 -1.129600 -5.695990 -22.183399 3.054470 -2.920230 9.645540 6.512030 -1.642720 9.223800 -3.122750 -8.197980 9.480770 3.488360 -3.874030 2.000000 -2.000000 0.000000 99.129700 171.621002 3.984000 58.916500 -0.285435 0.117140 0.064369 -0.055671 -157.223999 -2.000000 2.000000 0.000000 79.874199 11.999900 129.591003 -91.172302 0.212252 0.117167 -0.234410 0.159241 126.075996 -6.106141 -0.129347 -11.524443 29.263197 3.482443 1.968264 -0.004554 0.019982 0.112026 -6.162249 8.254406 3.881106 29.918039 -2.779177 -2.235561 1.731125 0.827315 0.808350 
-1.634330 44.915123 0.767357 -4.248550 -0.876492 -5.579430 -22.141800 3.144650 -3.375410 10.174700 7.042200 -1.862770 7.659110 -3.420640 -6.875230 8.874620 3.551320 -3.222350 2.000000 -2.000000 0.000000 98.885902 171.774994 5.166010 58.740700 -0.285793 0.116923 0.064350 -0.055620 -157.205002 -2.000000 2.000000 0.000000 80.069901 11.413500 129.912003 -91.650803 0.211192 0.117141 -0.233569 0.159342 126.378998 -6.004502 -0.289233 -11.845871 28.946701 3.492100 1.954108 0.003096 -0.007392 0.101642 -6.228848 8.065678 3.589411 30.035620 -2.775028 -2.223032 1.669385 0.829919 0.820385 
-1.772057 44.910892 0.781076 -4.170360 -0.827881 -5.496280 -22.262501 3.152560 -3.103100 9.608240 6.856550 -1.752530 8.205600 -3.508850 -6.283830 9.098210 3.355110 -2.893670 2.000000 -2.000000 0.000000 99.501602 172.542999 6.369000 58.389198 -0.286509 0.116485 0.051954 -0.047908 -154.294998 -2.000000 2.000000 0.000000 80.526398 10.477800 128.716995 -92.158600 0.210067 0.117104 -0.232155 0.159502 126.887001 -6.041174 -0.224700 -12.048281 28.896303 3.503242 1.956650 0.025666 -0.002693 0.124303 -6.218613 8.192648 3.640196 29.871603 -2.752905 -2.239360 1.755014 0.860648 0.820239 
-1.901213 44.904457 0.844812 -4.151020 -0.993481 -5.279470 -22.428400 3.350780 -3.630160 9.694170 7.376700 -2.016400 8.178760 -3.703620 -5.431240 9.059510 3.413760 -2.480660 2.000000 -2.000000 0.000000 99.023003 171.936996 6.582410 58.037601 -0.287222 0.116043 0.052343 -0.049133 -154.753998 -2.000000 2.000000 0.000000 79.978401 9.218590 128.324997 -92.402802 0.209527 0.117082 -0.228535 0.159853 128.186005 -6.084664 0.031015 -12.377278 29.089386 3.532338 1.952504 -0.076625 0.009027 0.097454 -6.100057 8.488222 3.435475 29.762535 -2.758417 -2.223042 1.780233 0.853941 0.827879 
-2.048353 44.876549 0.878672 -4.092240 -0.847444 -4.812430 -22.033600 3.176700 -3.485270 10.183900 7.071240 -1.915630 9.421260 -3.829850 -5.315960 9.634660 3.146960 -2.364720 2.000000 -2.000000 0.000000 99.628799 173.276001 6.380500 57.188000 -0.288934 0.114958 0.050623 -0.043425 -152.625000 -2.000000 2.000000 0.000000 80.033302 9.211610 126.401001 -92.392998 0.209548 0.117083 -0.222806 0.160241 130.235992 -6.076166 0.069649 -12.710545 28.879414 3.552419 1.930018 -0.080368 0.005505 0.085671 -6.145709 8.541780 3.214736 29.824362 -2.736316 -2.246131 1.810626 0.874114 0.845257 
-2.195392 44.859196 0.940904 -3.926460 -1.061960 -4.429080 -22.078699 3.150940 -3.720350 10.222800 7.091330 -2.031490 10.180700 -3.599130 -5.131090 9.908810 3.183740 -2.248060 2.000000 -2.000000 0.000000 99.609100 173.188995 5.726000 56.533699 -0.290241 0.114104 0.051253 -0.045606 -153.434998 -2.000000 2.000000 0.000000 79.649696 8.354100 125.061996 -92.402802 0.209527 0.117082 -0.216137 0.170199 132.619003 -6.233312 0.456952 -13.041332 28.995489 3.573469 1.944019 -0.140976 0.009419 0.087181 -6.100108 8.925250 2.932967 29.520357 -2.723904 -2.218193 1.878153 0.879235 0.836011 
